<svg xmlns="http://www.w3.org/2000/svg" width="58.8075042724609" height="58.8075042724609" viewBox="0 0 412.5 312.5" class="looka-1j8o68f"><defs id="SvgjsDefs6273"><linearGradient id="SvgjsLinearGradient6282"><stop id="SvgjsStop6283" stop-color="#905e26" offset="0"></stop><stop id="SvgjsStop6284" stop-color="#f5ec9b" offset="0.5"></stop><stop id="SvgjsStop6285" stop-color="#905e26" offset="1"></stop></linearGradient><linearGradient id="SvgjsLinearGradient6286"><stop id="SvgjsStop6287" stop-color="#905e26" offset="0"></stop><stop id="SvgjsStop6288" stop-color="#f5ec9b" offset="0.5"></stop><stop id="SvgjsStop6289" stop-color="#905e26" offset="1"></stop></linearGradient><linearGradient id="SvgjsLinearGradient6290"><stop id="SvgjsStop6291" stop-color="#905e26" offset="0"></stop><stop id="SvgjsStop6292" stop-color="#f5ec9b" offset="0.5"></stop><stop id="SvgjsStop6293" stop-color="#905e26" offset="1"></stop></linearGradient><linearGradient id="SvgjsLinearGradient6294"><stop id="SvgjsStop6295" stop-color="#905e26" offset="0"></stop><stop id="SvgjsStop6296" stop-color="#f5ec9b" offset="0.5"></stop><stop id="SvgjsStop6297" stop-color="#905e26" offset="1"></stop></linearGradient></defs><g id="SvgjsG6274"
                                                                                                                                                                                                                                                                                                                                                                                                                                                                                                                                                                                                                                                                                                                                                                                                                                                                                                                                                                                                                                                                                                   transform="matrix(1.5591478891360584,0,0,1.5591478891360584,0,0)" fill="url(#SvgjsLinearGradient6282)"><path xmlns="http://www.w3.org/2000/svg" d="M100.215 200.43c55.259 0 100.215-44.956 100.215-100.215S155.474 0 100.215 0 0 44.956 0 100.215 44.956 200.43 100.215 200.43zm0-190.43c49.745 0 90.215 40.47 90.215 90.215s-40.47 90.215-90.215 90.215C50.47 190.43 10 149.959 10 100.215S50.47 10 100.215 10z"></path></g><g id="SvgjsG6275" transform="matrix(0.9316996791133668,0,0,0.9316996791133668,109.41442872067758,73.34150160443316)" fill="url(#SvgjsLinearGradient6286)"><g xmlns="http://www.w3.org/2000/svg" display="none"><rect x="-169.245" y="-34.243" display="inline" fill="url(#SvgjsLinearGradient6286)" width="1329.133" height="1263.126"></rect></g><g xmlns="http://www.w3.org/2000/svg"><path d="M32.825,26.171l1.607,2.4c1.264-0.847,1.706-1.967,1.897-3.008c0.082-0.447,0.122-0.882,0.153-1.271   c0.096-1.216,0.188-1.712,0.777-2.107c0.589-0.394,1.085-0.29,2.243,0.083c0.372,0.12,0.789,0.248,1.234,0.342   c1.035,0.22,2.24,0.238,3.503-0.608c1.263-0.846,1.705-1.966,1.895-3.007c0.082-0.447,0.122-0.882,0.152-1.271   c0.095-1.215,0.187-1.711,0.775-2.105c0.588-0.393,1.081-0.29,2.239,0.086c0.371,0.12,0.788,0.249,1.233,0.344   c1.034,0.221,2.238,0.239,3.501-0.607l-1.607-2.399c-0.587,0.392-1.08,0.288-2.24-0.086c-1.236-0.399-2.928-0.945-4.734,0.263   c-1.806,1.209-1.946,2.983-2.047,4.278c-0.095,1.215-0.187,1.711-0.775,2.105c-0.589,0.394-1.083,0.292-2.244-0.083   c-1.236-0.397-2.93-0.943-4.736,0.266c-1.807,1.21-1.947,2.984-2.049,4.279C33.506,25.28,33.414,25.777,32.825,26.171z"></path><path d="M70.471,23.964c0.443-0.101,0.859-0.235,1.229-0.361c1.154-0.391,1.649-0.502,2.242-0.117   c0.596,0.386,0.695,0.881,0.809,2.096c0.037,0.389,0.083,0.822,0.172,1.268c0.206,1.038,0.664,2.152,1.941,2.98   c1.277,0.828,2.48,0.792,3.512,0.556c0.443-0.102,0.858-0.236,1.227-0.362c1.155-0.391,1.647-0.502,2.24-0.118   c0.593,0.385,0.691,0.879,0.804,2.091c0.036,0.389,0.083,0.823,0.171,1.269c0.205,1.038,0.663,2.151,1.938,2.978l1.572-2.423   c-0.593-0.385-0.692-0.879-0.805-2.092c-0.12-1.293-0.285-3.064-2.108-4.246c-1.825-1.184-3.509-0.611-4.74-0.195   c-1.154,0.392-1.645,0.503-2.24,0.118c-0.595-0.386-0.694-0.881-0.809-2.095c-0.121-1.293-0.288-3.065-2.112-4.248   c-1.826-1.184-3.51-0.613-4.74-0.196c-1.154,0.391-1.647,0.502-2.242,0.117l-1.572,2.423C68.235,24.235,69.439,24.2,70.471,23.964z   "></path><path d="M80.595,8.299c0.409,0.408,1.073,0.408,1.482,0c0.408-0.408,0.408-1.074,0-1.482l-1.51-1.51   C80.369,5.109,80.106,5,79.826,5c-0.28,0-0.543,0.109-0.741,0.307c-0.198,0.198-0.307,0.461-0.307,0.741   c0,0.28,0.109,0.543,0.307,0.741L80.595,8.299z"></path><path d="M85.319,13.023c0.396,0.396,1.086,0.396,1.482,0c0.198-0.198,0.307-0.461,0.307-0.741s-0.109-0.543-0.307-0.741l-1.51-1.51   c-0.198-0.198-0.461-0.307-0.741-0.307c-0.28,0-0.543,0.109-0.741,0.307c-0.198,0.198-0.307,0.461-0.307,0.741   c0,0.28,0.109,0.543,0.307,0.741L85.319,13.023z"></path><path d="M81.336,9.725c-0.268,0-0.537,0.102-0.741,0.306l-1.51,1.51c-0.408,0.408-0.408,1.073,0,1.482   c0.409,0.409,1.074,0.408,1.482,0l1.51-1.51c0.408-0.408,0.408-1.074,0-1.482C81.873,9.827,81.604,9.725,81.336,9.725z"></path><path d="M85.291,8.298l1.51-1.51c0.198-0.198,0.307-0.461,0.307-0.741s-0.109-0.543-0.307-0.741C86.603,5.109,86.34,5,86.06,5   s-0.543,0.109-0.741,0.307l-1.51,1.51c-0.198,0.198-0.307,0.461-0.307,0.741s0.109,0.543,0.307,0.741   C84.205,8.693,84.895,8.694,85.291,8.298z"></path><path d="M12.072,21.651c0.409,0.408,1.074,0.408,1.482,0c0.408-0.408,0.408-1.074,0-1.482l-1.51-1.51   c-0.204-0.204-0.472-0.306-0.741-0.306c-0.268,0-0.536,0.102-0.741,0.306c-0.408,0.408-0.408,1.074,0,1.482L12.072,21.651z"></path><path d="M16.796,26.375c0.396,0.396,1.086,0.396,1.482,0c0.198-0.198,0.307-0.461,0.307-0.741c0-0.28-0.109-0.543-0.307-0.741   l-1.51-1.51c-0.204-0.204-0.473-0.306-0.741-0.306c-0.268,0-0.536,0.102-0.741,0.306c-0.408,0.408-0.408,1.073,0,1.482   L16.796,26.375z"></path><path d="M12.044,26.375l1.51-1.51c0.408-0.408,0.408-1.074,0-1.482c-0.204-0.204-0.472-0.306-0.741-0.306   c-0.268,0-0.536,0.102-0.741,0.306l-1.51,1.51c-0.408,0.408-0.408,1.073,0,1.482C10.971,26.785,11.636,26.784,12.044,26.375z"></path><path d="M16.768,21.651l1.51-1.51c0.198-0.198,0.307-0.461,0.307-0.741c0-0.28-0.109-0.543-0.307-0.741   c-0.198-0.198-0.461-0.307-0.741-0.307c-0.28,0-0.543,0.109-0.741,0.307l-1.51,1.51c-0.408,0.408-0.408,1.073,0,1.482   C15.696,22.06,16.36,22.059,16.768,21.651z"></path><path d="M28.546,16.257c2.834,0,5.14-2.306,5.14-5.14c0-2.834-2.306-5.14-5.14-5.14c-2.834,0-5.14,2.306-5.14,5.14   C23.406,13.952,25.712,16.257,28.546,16.257z M28.546,8.866c1.242,0,2.252,1.01,2.252,2.252c0,1.242-1.01,2.252-2.252,2.252   c-1.241,0-2.252-1.01-2.252-2.252C26.295,9.876,27.305,8.866,28.546,8.866z"></path><g><path d="M73.398,67.854c0.268-4.17-2.954-8.51-7.034-9.496c-5.106-1.122-10.306-1.686-15.493-1.686    c-5.188,0-10.387,0.564-15.454,1.677c-4.12,0.996-7.342,5.336-7.075,9.486c0.328,4.404,0.655,8.884,0.982,13.453    c0.456,6.195,5.466,12.008,11.169,12.96C43.945,94.749,47.423,95,50.87,95c3.447,0,6.925-0.251,10.337-0.745    c5.744-0.959,10.754-6.771,11.21-12.963C72.745,76.719,73.072,72.238,73.398,67.854z"></path><path d="M50.87,53.466c6.392,0,11.592-5.2,11.592-11.592c0-6.392-5.2-11.592-11.592-11.592c-6.392,0-11.592,5.2-11.592,11.592    C39.279,48.266,44.479,53.466,50.87,53.466z"></path><path d="M26.443,81.495c-0.327-4.567-0.654-9.044-0.984-13.474c-0.09-1.393,0.105-2.788,0.533-4.118    c0.21-0.653,0.477-1.29,0.793-1.904c-0.669-0.024-1.337-0.055-2.005-0.055c0,0-0.001,0-0.001,0c-4.005,0-8.018,0.436-11.928,1.294    c-3.363,0.813-5.988,4.349-5.77,7.732c0.251,3.376,0.502,6.805,0.752,10.303c0.364,4.939,4.368,9.574,8.927,10.335    c2.674,0.388,5.359,0.582,8.019,0.582c2.05,0,4.114-0.117,6.157-0.345c-0.505-0.567-0.97-1.171-1.403-1.8    C27.804,87.535,26.67,84.579,26.443,81.495z"></path><path d="M24.779,59.138c5.018,0,9.1-4.082,9.1-9.1s-4.082-9.1-9.1-9.1c-5.018,0-9.1,4.082-9.1,9.1S19.761,59.138,24.779,59.138z"></path><path d="M87.926,64.183c-3.863-0.849-7.806-1.276-11.74-1.276h-0.001v0.963v1.971c0.104,0.736,0.142,1.482,0.094,2.228    c-0.031,0.42-0.063,0.853-0.094,1.275v5.529h-0.407c-0.16,2.188-0.319,4.397-0.48,6.631c-0.229,3.106-1.382,6.084-3.14,8.607    c-0.215,0.309-0.439,0.611-0.672,0.905c1.567,0.135,3.137,0.212,4.699,0.212c2.615,0,5.253-0.19,7.84-0.565    c4.168-0.696,7.813-4.936,8.146-9.456c0.251-3.501,0.501-6.931,0.751-10.288C93.111,67.963,90.823,64.883,87.926,64.183z"></path><path d="M70.188,56.866c0.544,0.329,1.065,0.696,1.554,1.107c1.315,0.739,2.829,1.166,4.442,1.166c5.018,0,9.1-4.082,9.1-9.1    s-4.082-9.1-9.1-9.1s-9.1,4.082-9.1,9.1C67.084,52.758,68.29,55.197,70.188,56.866z"></path></g></g></g><g id="SvgjsG6276" transform="matrix(1.1395232662809716,0,0,1.1395232662809716,54.860476733719025,170.55918753674248)" fill="url(#SvgjsLinearGradient6290)"><path d="M14.16 40.56 c-7.08 0 -11.56 -4.16 -13.16 -8.48 l6.32 -1.96 c1.08 2.6 3.56 4.64 7.24 4.64 c2.68 0 4.36 -1.24 4.36 -2.64 c0 -1.16 -0.88 -2 -3 -2.68 l-7.2 -2.24 c-3.68 -1.16 -6.44 -3.72 -6.4 -7.4 c-0.04 -4.6 4.32 -8.36 10.36 -8.36 c6.16 0 10.88 3.44 12.36 7.36 l-6.12 1.8 c-1.08 -1.96 -3.48 -3.36 -6.16 -3.36 c-2.28 0 -3.72 1.04 -3.72 2.32 c0 0.96 0.68 1.64 1.88 2 l7.04 2.24 c4.2 1.32 7.68 3.16 7.68 7.88 c0 5 -4.56 8.88 -11.48 8.88 z M39.954 19.04 c5.44 0 7.96 3.68 7.96 9.08 l0 11.88 l-6.4 0 l0 -10.6 c0 -2.68 -1.12 -4.44 -3.64 -4.44 c-2.48 0 -3.96 1.96 -3.96 5.08 l0 9.96 l-6.4 0 l0 -29.2 l6.4 0 l0 10.92 c1.36 -1.56 3.4 -2.68 6.04 -2.68 z M53.94800000000001 17.24 c-2.04 0 -3.68 -1.6 -3.68 -3.64 c0 -1.96 1.64 -3.56 3.68 -3.56 s3.68 1.6 3.68 3.56 c0 2.04 -1.64 3.64 -3.68 3.64 z M50.668000000000006 40 l0 -20.4 l6.4 0 l0 20.4 l-6.4 0 z M68.50200000000001 18.16 l0 1.44 l5.6 0 l0 5.6 l-5.6 0 l0 14.8 l-6.4 0 l0 -14.8 l-3.72 0 l0 -5.6 l3.72 0 l0 -1.44 c0 -4.8 2.6 -7.92 7.56 -7.92 c1.88 0 3.36 0.24 4.8 0.88 l-1.52 5.08 c-0.76 -0.32 -1.36 -0.44 -2.28 -0.44 c-1.32 0 -2.16 0.92 -2.16 2.4 z M86.976 34.24 l1.52 5.08 c-1.72 0.68 -3.2 1 -5 1 c-4.96 0 -7.2 -3.04 -7.2 -7.68 l0 -7.44 l-3.16 0 l0 -5.6 l3.16 0 l0 -6.4 l6.4 0 l0 6.4 l5.48 0 l0 5.6 l-5.48 0 l0 7.44 c0 1.36 0.68 2.12 2.12 2.12 c0.84 0 1.48 -0.16 2.16 -0.52 z M111.05000000000001 18 l-14.6 0 l0 4.88 l12.56 0 l0 5.8 l-12.56 0 l0 5.32 l14.56 0 l0 6 l-21.04 0 l0 -28 l21.08 0 l0 6 z M121.644 40.56 c-5.52 0 -9.92 -4.56 -9.92 -10.76 s4.4 -10.76 9.92 -10.76 c2.52 0 4.48 0.92 5.88 2.44 l0 -1.88 l6.4 0 l0 20.4 l-6.4 0 l0 -1.88 c-1.4 1.48 -3.36 2.44 -5.88 2.44 z M122.804 34.88 c2.76 0 4.88 -2.04 4.88 -5.12 c0 -3.04 -2.12 -5.04 -4.88 -5.04 s-4.76 2 -4.76 5.04 c0 3.08 2 5.12 4.76 5.12 z M145.27800000000002 40.56 c-5.24 0 -9.2 -3.04 -10.2 -6.32 l5.72 -1.68 c0.68 1.68 2.32 2.96 4.72 2.96 c1.6 0 2.56 -0.72 2.56 -1.48 c0 -0.72 -0.68 -1.2 -1.92 -1.56 l-4.88 -1.44 c-3.08 -0.92 -5.16 -2.76 -5.16 -5.68 c0 -3.6 3.92 -6.32 8.48 -6.32 c4.4 0 7.92 2 9.24 5.2 l-5.6 1.6 c-0.76 -1.08 -1.96 -1.92 -3.68 -1.92 c-1.12 0 -2.16 0.52 -2.16 1.28 c0 0.52 0.32 0.92 1.16 1.2 l4.72 1.32 c3.24 0.92 6.08 2.12 6.08 6.04 s-3.72 6.8 -9.08 6.8 z M166.23200000000003 40.56 c-6.64 0 -11.2 -4.36 -11.2 -10.72 c0 -6.12 4.28 -10.8 10.8 -10.8 c6.76 0 10.68 4.68 10.68 10.56 c0 0.72 -0.04 1.44 -0.16 2.12 l-15.08 0 c0.4 1.92 1.8 3.52 5.08 3.52 c2.16 0 3.4 -0.84 4.08 -2.08 l5.76 1.68 c-1.08 2.52 -4.52 5.72 -9.96 5.72 z M161.27200000000002 27.880000000000003 l9 0 c-0.2 -1.84 -1.84 -3.48 -4.48 -3.48 s-4.24 1.76 -4.52 3.48 z"></path></g><g id="SvgjsG6277" transform="matrix(0.41363102232667454,0,0,0.41363102232667454,67.50364324657113,230.92357207857484)" fill="url(#SvgjsLinearGradient6294)"><path d="M11.74 9 l-7.3 0 l0 2.44 l6.28 0 l0 2.9 l-6.28 0 l0 2.66 l7.28 0 l0 3 l-10.52 0 l0 -14 l10.54 0 l0 3 z M24.700000000000003 9.08 l0 0.72 l2.8 0 l0 2.8 l-2.8 0 l0 7.4 l-3.2 0 l0 -7.4 l-3.6 0 l0 7.4 l-3.2 0 l0 -7.4 l-1.86 0 l0 -2.8 l1.86 0 l0 -0.72 c0 -2.4 1.3 -3.96 3.78 -3.96 c0.94 0 1.68 0.12 2.4 0.44 l-0.76 2.54 c-0.38 -0.16 -0.68 -0.22 -1.14 -0.22 c-0.66 0 -1.08 0.46 -1.08 1.2 l0 0.72 l3.6 0 l0 -0.72 c0 -2.4 1.3 -3.96 3.78 -3.96 c0.94 0 1.68 0.12 2.4 0.44 l-0.76 2.54 c-0.38 -0.16 -0.68 -0.22 -1.14 -0.22 c-0.66 0 -1.08 0.46 -1.08 1.2 z M33.76 20.28 c-3.18 0 -5.48 -2.32 -5.48 -5.38 s2.3 -5.38 5.48 -5.38 s5.48 2.32 5.48 5.38 s-2.3 5.38 -5.48 5.38 z M33.76 17.4 c1.46 0 2.38 -1.06 2.38 -2.5 s-0.92 -2.5 -2.38 -2.5 s-2.38 1.06 -2.38 2.5 s0.92 2.5 2.38 2.5 z M44.24 11.18 c0.6 -1.1 1.7 -1.72 3.2 -1.52 l0 3 c-2.16 -0.36 -3.2 0.56 -3.2 3.08 l0 4.26 l-3.2 0 l0 -10.2 l3.2 0 l0 1.38 z M54.96 17.12 l0.76 2.54 c-0.86 0.34 -1.6 0.5 -2.5 0.5 c-2.48 0 -3.6 -1.52 -3.6 -3.84 l0 -3.72 l-1.58 0 l0 -2.8 l1.58 0 l0 -3.2 l3.2 0 l0 3.2 l2.74 0 l0 2.8 l-2.74 0 l0 3.72 c0 0.68 0.34 1.06 1.06 1.06 c0.42 0 0.74 -0.08 1.08 -0.26 z M57.32000000000001 20 l0 -14.6 l3.2 0 l0 14.6 l-3.2 0 z M67.92 20.28 c-3.32 0 -5.6 -2.18 -5.6 -5.36 c0 -3.06 2.14 -5.4 5.4 -5.4 c3.38 0 5.34 2.34 5.34 5.28 c0 0.36 -0.02 0.72 -0.08 1.06 l-7.54 0 c0.2 0.96 0.9 1.76 2.54 1.76 c1.08 0 1.7 -0.42 2.04 -1.04 l2.88 0.84 c-0.54 1.26 -2.26 2.86 -4.98 2.86 z M65.44000000000001 13.940000000000001 l4.5 0 c-0.1 -0.92 -0.92 -1.74 -2.24 -1.74 s-2.12 0.88 -2.26 1.74 z M79.00000000000001 20.28 c-2.62 0 -4.6 -1.52 -5.1 -3.16 l2.86 -0.84 c0.34 0.84 1.16 1.48 2.36 1.48 c0.8 0 1.28 -0.36 1.28 -0.74 c0 -0.36 -0.34 -0.6 -0.96 -0.78 l-2.44 -0.72 c-1.54 -0.46 -2.58 -1.38 -2.58 -2.84 c0 -1.8 1.96 -3.16 4.24 -3.16 c2.2 0 3.96 1 4.62 2.6 l-2.8 0.8 c-0.38 -0.54 -0.98 -0.96 -1.84 -0.96 c-0.56 0 -1.08 0.26 -1.08 0.64 c0 0.26 0.16 0.46 0.58 0.6 l2.36 0.66 c1.62 0.46 3.04 1.06 3.04 3.02 s-1.86 3.4 -4.54 3.4 z M89.48000000000002 20.28 c-2.62 0 -4.6 -1.52 -5.1 -3.16 l2.86 -0.84 c0.34 0.84 1.16 1.48 2.36 1.48 c0.8 0 1.28 -0.36 1.28 -0.74 c0 -0.36 -0.34 -0.6 -0.96 -0.78 l-2.44 -0.72 c-1.54 -0.46 -2.58 -1.38 -2.58 -2.84 c0 -1.8 1.96 -3.16 4.24 -3.16 c2.2 0 3.96 1 4.62 2.6 l-2.8 0.8 c-0.38 -0.54 -0.98 -0.96 -1.84 -0.96 c-0.56 0 -1.08 0.26 -1.08 0.64 c0 0.26 0.16 0.46 0.58 0.6 l2.36 0.66 c1.62 0.46 3.04 1.06 3.04 3.02 s-1.86 3.4 -4.54 3.4 z M106.50000000000001 20.28 c-3.54 0 -5.78 -2.08 -6.58 -4.24 l3.16 -0.98 c0.54 1.3 1.78 2.32 3.62 2.32 c1.34 0 2.18 -0.62 2.18 -1.32 c0 -0.58 -0.44 -1 -1.5 -1.34 l-3.6 -1.12 c-1.84 -0.58 -3.22 -1.86 -3.2 -3.7 c-0.02 -2.3 2.16 -4.18 5.18 -4.18 c3.08 0 5.44 1.72 6.18 3.68 l-3.06 0.9 c-0.54 -0.98 -1.74 -1.68 -3.08 -1.68 c-1.14 0 -1.86 0.52 -1.86 1.16 c0 0.48 0.34 0.82 0.94 1 l3.52 1.12 c2.1 0.66 3.84 1.58 3.84 3.94 c0 2.5 -2.28 4.44 -5.74 4.44 z M120.26000000000002 9.52 c2.72 0 3.98 1.84 3.98 4.54 l0 5.94 l-3.2 0 l0 -5.3 c0 -1.34 -0.56 -2.22 -1.82 -2.22 c-1.24 0 -1.98 0.98 -1.98 2.54 l0 4.98 l-3.2 0 l0 -14.6 l3.2 0 l0 5.46 c0.68 -0.78 1.7 -1.34 3.02 -1.34 z M128.12 8.62 c-1.02 0 -1.84 -0.8 -1.84 -1.82 c0 -0.98 0.82 -1.78 1.84 -1.78 s1.84 0.8 1.84 1.78 c0 1.02 -0.82 1.82 -1.84 1.82 z M126.48000000000002 20 l0 -10.2 l3.2 0 l0 10.2 l-3.2 0 z M136.26000000000002 9.08 l0 0.72 l2.8 0 l0 2.8 l-2.8 0 l0 7.4 l-3.2 0 l0 -7.4 l-1.86 0 l0 -2.8 l1.86 0 l0 -0.72 c0 -2.4 1.3 -3.96 3.78 -3.96 c0.94 0 1.68 0.12 2.4 0.44 l-0.76 2.54 c-0.38 -0.16 -0.68 -0.22 -1.14 -0.22 c-0.66 0 -1.08 0.46 -1.08 1.2 z M146.36 17.12 l0.76 2.54 c-0.86 0.34 -1.6 0.5 -2.5 0.5 c-2.48 0 -3.6 -1.52 -3.6 -3.84 l0 -3.72 l-1.58 0 l0 -2.8 l1.58 0 l0 -3.2 l3.2 0 l0 3.2 l2.74 0 l0 2.8 l-2.74 0 l0 3.72 c0 0.68 0.34 1.06 1.06 1.06 c0.42 0 0.74 -0.08 1.08 -0.26 z M165.22000000000003 6 l3.16 0 l0 14 l-3.32 0 l0 -8.2 l-4.12 5.62 l-4.1 -5.62 l0 8.2 l-3.32 0 l0 -14 l3.16 0 l4.28 6.22 z M175.14000000000001 20.28 c-2.76 0 -4.96 -2.28 -4.96 -5.38 s2.2 -5.38 4.96 -5.38 c1.26 0 2.24 0.46 2.94 1.22 l0 -0.94 l3.2 0 l0 10.2 l-3.2 0 l0 -0.94 c-0.7 0.74 -1.68 1.22 -2.94 1.22 z M175.72 17.44 c1.38 0 2.44 -1.02 2.44 -2.56 c0 -1.52 -1.06 -2.52 -2.44 -2.52 s-2.38 1 -2.38 2.52 c0 1.54 1 2.56 2.38 2.56 z M189.9 9.52 c2.72 0 3.98 1.84 3.98 4.54 l0 5.94 l-3.2 0 l0 -5.3 c0 -1.34 -0.56 -2.22 -1.82 -2.22 c-1.24 0 -1.98 0.98 -1.98 2.54 l0 4.98 l-3.2 0 l0 -10.2 l3.2 0 l0 1.06 c0.68 -0.78 1.7 -1.34 3.02 -1.34 z M200.54000000000002 20.28 c-2.76 0 -4.96 -2.28 -4.96 -5.38 s2.2 -5.38 4.96 -5.38 c1.26 0 2.24 0.46 2.94 1.22 l0 -0.94 l3.2 0 l0 10.2 l-3.2 0 l0 -0.94 c-0.7 0.74 -1.68 1.22 -2.94 1.22 z M201.12 17.44 c1.38 0 2.44 -1.02 2.44 -2.56 c0 -1.52 -1.06 -2.52 -2.44 -2.52 s-2.38 1 -2.38 2.52 c0 1.54 1 2.56 2.38 2.56 z M216.28000000000003 9.8 l3.2 0 l0 9.82 c0 2.86 -2.08 4.86 -5.36 4.86 c-2.54 0 -4.1 -1.14 -4.94 -2.66 l2.76 -1 c0.44 0.68 1.16 1.06 2.26 1.06 c1.42 0 2.08 -0.96 2.08 -2.24 l0 -0.98 c-0.74 0.8 -1.7 1.22 -2.82 1.22 c-2.9 0 -4.98 -2.28 -4.98 -5.18 c0 -3.1 2.08 -5.18 4.98 -5.18 c1.12 0 2.08 0.42 2.82 1.22 l0 -0.94 z M214.02 17.02 c1.4 0 2.34 -0.92 2.34 -2.32 s-0.94 -2.32 -2.34 -2.32 c-1.42 0 -2.38 0.92 -2.38 2.32 s0.96 2.32 2.38 2.32 z M226.88000000000002 20.28 c-3.32 0 -5.6 -2.18 -5.6 -5.36 c0 -3.06 2.14 -5.4 5.4 -5.4 c3.38 0 5.34 2.34 5.34 5.28 c0 0.36 -0.02 0.72 -0.08 1.06 l-7.54 0 c0.2 0.96 0.9 1.76 2.54 1.76 c1.08 0 1.7 -0.42 2.04 -1.04 l2.88 0.84 c-0.54 1.26 -2.26 2.86 -4.98 2.86 z M224.40000000000003 13.940000000000001 l4.5 0 c-0.1 -0.92 -0.92 -1.74 -2.24 -1.74 s-2.12 0.88 -2.26 1.74 z M246.16000000000003 9.52 c2.42 0 4.06 1.56 4.06 4.46 l0 6.02 l-3.2 0 l0 -5.3 c0 -1.34 -0.42 -2.22 -1.62 -2.22 c-1.26 0 -1.78 0.9 -1.78 2.46 l0 5.06 l-3.2 0 l0 -5.3 c0 -1.34 -0.42 -2.22 -1.62 -2.22 c-1.26 0 -1.78 0.9 -1.78 2.46 l0 5.06 l-3.2 0 l0 -10.2 l3.2 0 l0 1 c0.64 -0.74 1.6 -1.28 2.82 -1.28 c1.38 0 2.36 0.5 2.96 1.36 c0.7 -0.74 1.8 -1.36 3.36 -1.36 z M257.52000000000004 20.28 c-3.32 0 -5.6 -2.18 -5.6 -5.36 c0 -3.06 2.14 -5.4 5.4 -5.4 c3.38 0 5.34 2.34 5.34 5.28 c0 0.36 -0.02 0.72 -0.08 1.06 l-7.54 0 c0.2 0.96 0.9 1.76 2.54 1.76 c1.08 0 1.7 -0.42 2.04 -1.04 l2.88 0.84 c-0.54 1.26 -2.26 2.86 -4.98 2.86 z M255.04000000000002 13.940000000000001 l4.5 0 c-0.1 -0.92 -0.92 -1.74 -2.24 -1.74 s-2.12 0.88 -2.26 1.74 z M270.68000000000006 9.52 c2.72 0 3.98 1.84 3.98 4.54 l0 5.94 l-3.2 0 l0 -5.3 c0 -1.34 -0.56 -2.22 -1.82 -2.22 c-1.24 0 -1.98 0.98 -1.98 2.54 l0 4.98 l-3.2 0 l0 -10.2 l3.2 0 l0 1.06 c0.68 -0.78 1.7 -1.34 3.02 -1.34 z M282.88000000000005 17.12 l0.76 2.54 c-0.86 0.34 -1.6 0.5 -2.5 0.5 c-2.48 0 -3.6 -1.52 -3.6 -3.84 l0 -3.72 l-1.58 0 l0 -2.8 l1.58 0 l0 -3.2 l3.2 0 l0 3.2 l2.74 0 l0 2.8 l-2.74 0 l0 3.72 c0 0.68 0.34 1.06 1.06 1.06 c0.42 0 0.74 -0.08 1.08 -0.26 z M294.20000000000005 9.08 l0 0.72 l2.8 0 l0 2.8 l-2.8 0 l0 7.4 l-3.2 0 l0 -7.4 l-1.86 0 l0 -2.8 l1.86 0 l0 -0.72 c0 -2.4 1.3 -3.96 3.78 -3.96 c0.94 0 1.68 0.12 2.4 0.44 l-0.76 2.54 c-0.38 -0.16 -0.68 -0.22 -1.14 -0.22 c-0.66 0 -1.08 0.46 -1.08 1.2 z M303.26 20.28 c-3.18 0 -5.48 -2.32 -5.48 -5.38 s2.3 -5.38 5.48 -5.38 s5.48 2.32 5.48 5.38 s-2.3 5.38 -5.48 5.38 z M303.26 17.4 c1.46 0 2.38 -1.06 2.38 -2.5 s-0.92 -2.5 -2.38 -2.5 s-2.38 1.06 -2.38 2.5 s0.92 2.5 2.38 2.5 z M313.74 11.18 c0.6 -1.1 1.7 -1.72 3.2 -1.52 l0 3 c-2.16 -0.36 -3.2 0.56 -3.2 3.08 l0 4.26 l-3.2 0 l0 -10.2 l3.2 0 l0 1.38 z M332.24000000000007 6 l3.72 0 l-5.22 8.96 l0 5.04 l-3.36 0 l0 -5.04 l-5.24 -8.96 l3.74 0 l3.18 5.72 z M342.04 20.28 c-3.18 0 -5.48 -2.32 -5.48 -5.38 s2.3 -5.38 5.48 -5.38 s5.48 2.32 5.48 5.38 s-2.3 5.38 -5.48 5.38 z M342.04 17.4 c1.46 0 2.38 -1.06 2.38 -2.5 s-0.92 -2.5 -2.38 -2.5 s-2.38 1.06 -2.38 2.5 s0.92 2.5 2.38 2.5 z M356.2200000000001 9.8 l3.2 0 l0 10.2 l-3.2 0 l0 -1.06 c-0.68 0.78 -1.7 1.34 -3.02 1.34 c-2.72 0 -3.98 -1.84 -3.98 -4.54 l0 -5.94 l3.2 0 l0 5.3 c0 1.34 0.56 2.22 1.82 2.22 c1.24 0 1.98 -0.98 1.98 -2.54 l0 -4.98 z M365.02000000000004 11.18 c0.6 -1.1 1.7 -1.72 3.2 -1.52 l0 3 c-2.16 -0.36 -3.2 0.56 -3.2 3.08 l0 4.26 l-3.2 0 l0 -10.2 l3.2 0 l0 1.38 z M385.9600000000001 6 l0 3 l-4.46 0 l0 11 l-3.32 0 l0 -11 l-4.46 0 l0 -3 l12.24 0 z M390.46000000000004 20.28 c-3.32 0 -5.6 -2.18 -5.6 -5.36 c0 -3.06 2.14 -5.4 5.4 -5.4 c3.38 0 5.34 2.34 5.34 5.28 c0 0.36 -0.02 0.72 -0.08 1.06 l-7.54 0 c0.2 0.96 0.9 1.76 2.54 1.76 c1.08 0 1.7 -0.42 2.04 -1.04 l2.88 0.84 c-0.54 1.26 -2.26 2.86 -4.98 2.86 z M387.9800000000001 13.940000000000001 l4.5 0 c-0.1 -0.92 -0.92 -1.74 -2.24 -1.74 s-2.12 0.88 -2.26 1.74 z M401.76000000000005 20.28 c-2.76 0 -4.96 -2.28 -4.96 -5.38 s2.2 -5.38 4.96 -5.38 c1.26 0 2.24 0.46 2.94 1.22 l0 -0.94 l3.2 0 l0 10.2 l-3.2 0 l0 -0.94 c-0.7 0.74 -1.68 1.22 -2.94 1.22 z M402.34000000000003 17.44 c1.38 0 2.44 -1.02 2.44 -2.56 c0 -1.52 -1.06 -2.52 -2.44 -2.52 s-2.38 1 -2.38 2.52 c0 1.54 1 2.56 2.38 2.56 z M422.64000000000004 9.52 c2.42 0 4.06 1.56 4.06 4.46 l0 6.02 l-3.2 0 l0 -5.3 c0 -1.34 -0.42 -2.22 -1.62 -2.22 c-1.26 0 -1.78 0.9 -1.78 2.46 l0 5.06 l-3.2 0 l0 -5.3 c0 -1.34 -0.42 -2.22 -1.62 -2.22 c-1.26 0 -1.78 0.9 -1.78 2.46 l0 5.06 l-3.2 0 l0 -10.2 l3.2 0 l0 1 c0.64 -0.74 1.6 -1.28 2.82 -1.28 c1.38 0 2.36 0.5 2.96 1.36 c0.7 -0.74 1.8 -1.36 3.36 -1.36 z"></path></g></svg>